<svg id="Layer_1" height="512" viewBox="0 0 512 512" width="512" xmlns="http://www.w3.org/2000/svg" data-name="Layer 1"><path d="m412.16 309.21c20.32-33.82 36.06-97.25 31.67-151.17l-94.81-127.76-.01-.01c-15.17-5.09-36.86-9.15-56.34-10.49-139.42-9.56-188.91 57.42-206.35 101.89a118.193 118.193 0 0 0 -6.93 60.08 63.125 63.125 0 0 0 4.08 15.48 36.935 36.935 0 0 1 -2.49 32.99l-41.67 69.49a8.641 8.641 0 0 0 3.99 12.38l24.32 10.43a8.092 8.092 0 0 1 2.23 10.68l-9.25 15.7a5.562 5.562 0 0 0 2.61 7.94l10.3 4.38a4.429 4.429 0 0 1 2.09 6.31l-7.04 12.05a5.559 5.559 0 0 0 2.93 8.05l13.25 4.69s-20.42 90.52 44.86 63.91c22.87-9.33 45.46-18.46 65.21-26.43 0 0 25.95 34.26 34.38 60.99a7.37 7.37 0 0 0 7 5.21h178.89a7.348 7.348 0 0 0 6.6-10.53c-14.02-29.07-47.79-112.55-9.52-176.26z" fill="#ffd8b7"/><path d="m322.4 61.89c-7.13-2.3-11.2-.44-16 .39a5.43 5.43 0 0 1 -4.5-1.22c-11.28-9.81-28.26-5.57-37.32 2.34-44.1-23.42-66.96 9.68-66.96 9.68-48.89-8.23-49.74 34.91-49.74 34.91a24.776 24.776 0 0 0 -15.66 14.22 21.977 21.977 0 0 0 -.1 16.13c-7.47 7.95-10.56 17.23-10.56 28.6 0 25.01 21.91 45.29 48.93 45.29a51.873 51.873 0 0 0 23.37-5.49h.01a1.77 1.77 0 0 0 -.01.23c0 17.5 18.43 34.51 46.9 29.56 0 0 16.75-2.65 23.94-12.96 0 0 10.74 6.83 27.59 6.25v.01s-5.33 23.38 16.48 28.96c19.62 5.03 39.24 16.14 42.8 30.52a6.908 6.908 0 0 0 6.85 4.91h12.68a6.757 6.757 0 0 0 6.9-5.58c3.53-28.01-18.32-51.98-18.91-52.61 11.57-5.98 25.45-17.7 30.9-40.32a31.6 31.6 0 0 0 3.8-4.92 40.257 40.257 0 0 0 5.99-15.68z" fill="#f7b5c2"/><path d="m473.92 95.64a79.57 79.57 0 0 1 -74.14 79.47c-1.77.12-3.55.18-5.35.18a79.645 79.645 0 1 1 79.49-79.65z" fill="#e75163"/><path d="m281.784 19.191c-131.122-5.424-178.484 59.188-195.464 102.479a118.193 118.193 0 0 0 -6.93 60.08 63.125 63.125 0 0 0 4.08 15.48 36.935 36.935 0 0 1 -2.49 32.99l-41.67 69.49a8.641 8.641 0 0 0 3.99 12.38l24.32 10.43a8.092 8.092 0 0 1 2.23 10.68l-9.25 15.7a5.562 5.562 0 0 0 2.61 7.94l10.3 4.38a4.429 4.429 0 0 1 2.09 6.31l-7.04 12.05a5.559 5.559 0 0 0 2.93 8.05l13.25 4.69s-19.541 86.665 40.8 65.441c-22.44-13.8-10.8-65.441-10.8-65.441l-16.18-12.74 7.04-12.05a4.429 4.429 0 0 0 -2.09-6.31l-10.3-4.38a5.562 5.562 0 0 1 -2.61-7.94l9.25-15.7a8.092 8.092 0 0 0 -2.23-10.68l-24.32-10.43a8.641 8.641 0 0 1 -3.99-12.38l41.67-69.49a36.935 36.935 0 0 0 2.49-32.99 63.125 63.125 0 0 1 -4.08-15.48 118.193 118.193 0 0 1 6.93-60.08c15.614-39.814 56.932-97.662 165.464-102.479z" fill="#d6b399"/><path d="m259.19 490.79c-8.43-26.73-34.38-60.99-34.38-60.99-7.406 2.989-15.212 6.141-23.282 9.4 8.284 12.047 21.967 33.527 27.662 51.585a7.37 7.37 0 0 0 7 5.21h30a7.37 7.37 0 0 1 -7-5.205z" fill="#d6b399"/><path d="m344.93 95.64a79.63 79.63 0 0 1 64.47-78.21 79.627 79.627 0 1 0 -14.97 157.86c1.8 0 3.58-.06 5.35-.18a79.4 79.4 0 0 0 9.68-1.25 79.618 79.618 0 0 1 -64.53-78.22z" fill="#bc485b"/><g fill="#284268"><path d="m314.3 136.023h-6.974l-15.926-22.018a6 6 0 0 0 -10.47 1.381l-13.058 34.314-20.51-45.487a6 6 0 0 0 -11.047.255l-12.831 32.361h-17.912a6 6 0 0 0 0 12h21.988a6 6 0 0 0 5.578-3.789l9.11-22.976 20.622 45.736a6 6 0 0 0 5.468 3.534h.181a6 6 0 0 0 5.428-3.863l14.253-37.427 11.2 15.495a6 6 0 0 0 4.862 2.484h10.038a6 6 0 0 0 0-12z"/><path d="m40.935 317.6 23.507 10.09a2.111 2.111 0 0 1 .243 2.46l-9.253 15.7a11.562 11.562 0 0 0 5.427 16.51l8.661 3.682-6.145 10.508a11.562 11.562 0 0 0 6.108 16.732l8.362 2.962c-2.44 13.858-6.557 49.17 11.235 64.24 5.226 4.427 11.7 6.64 19.358 6.64q10.3 0 23.43-5.341c21.138-8.617 42.119-17.112 60.855-24.672 6.744 9.4 24.289 35.012 30.744 55.482a13.329 13.329 0 0 0 12.726 9.407h178.884a13.342 13.342 0 0 0 12-19.133c-6.621-13.735-18.523-41.552-23.852-73.526-6.37-38.241-1.635-70.886 14.075-97.041 19.393-32.28 36.615-94.335 32.726-151.683a85.523 85.523 0 0 0 -101.878-136.928c-15.5-4.853-36.271-8.6-55.07-9.891-62.913-4.317-114.268 6.338-152.632 31.662a156.882 156.882 0 0 0 -59.711 74.023 124.237 124.237 0 0 0 -7.283 63.126 69.022 69.022 0 0 0 4.464 16.9 31.033 31.033 0 0 1 -2.082 27.619l-41.666 69.493a14.642 14.642 0 0 0 6.767 20.979zm353.491-295.6a73.644 73.644 0 1 1 -73.493 73.644 73.652 73.652 0 0 1 73.493-73.644zm-44.292 156.458a6 6 0 0 0 -8.633 8.335 8.2 8.2 0 0 1 2.394 6.184 8.44 8.44 0 0 1 -3.174 6.04 11.044 11.044 0 0 1 -14.552-.723 6 6 0 0 0 -8.633 8.335 22.658 22.658 0 0 0 16.325 6.754 23.069 23.069 0 0 0 11.257-2.9 43.061 43.061 0 0 0 15.926 2.929 49.576 49.576 0 0 0 16.7-2.919c-12.913 22.165-36.012 25.43-37.24 25.587a6 6 0 0 0 .723 11.956 6.091 6.091 0 0 0 .722-.043 61.282 61.282 0 0 0 15.488-4.558c5.483 7.14 17.082 24.864 14.62 44.4a1.168 1.168 0 0 1 -.956.388h-12.68a1.506 1.506 0 0 1 -1.031-.353c-4.445-17.964-27.264-29.8-47.136-34.892-6.632-1.7-10.546-5.524-11.962-11.7a24.33 24.33 0 0 1 -.566-5.837 71.006 71.006 0 0 0 15.588-3.638 6 6 0 0 0 -4-11.316c-24.057 8.494-40.732-1.568-41.4-1.982a6 6 0 0 0 -8.14 1.63c-4.657 6.677-15.991 9.815-20.046 10.474-12.512 2.177-23.662-.2-31.393-6.705-5.39-4.533-8.482-10.706-8.482-16.936a24.359 24.359 0 0 1 6.894-16.814 6 6 0 0 0 -8.688-8.279 36.539 36.539 0 0 0 -9.945 20.877 46.4 46.4 0 0 1 -17.633 3.478c-23.668 0-42.924-17.63-42.924-39.3 0-7.086 1.29-12.857 4.079-17.9a31.731 31.731 0 0 0 13.829 9.311 6 6 0 1 0 3.874-11.357 18.716 18.716 0 0 1 -11.2-9.788 16.066 16.066 0 0 1 -.348-12.776c3.721-9.351 15.108-14.108 25.386-10.6a6 6 0 1 0 3.874-11.357 33.133 33.133 0 0 0 -11.939-1.746c1.335-4.99 4.092-11.485 9.786-16.168 7.3-6 17.97-7.871 31.72-5.556a6.04 6.04 0 0 0 5.917-2.483c.774-1.1 18.3-25.171 52.5-10.992a19.218 19.218 0 0 0 -2.152 5.019 6 6 0 1 0 11.621 2.99c.9-3.508 6.049-8.539 13.806-10.952 3.587-1.116 12.68-3.055 19.647 3.005a11.4 11.4 0 0 0 9.464 2.611c1.085-.189 2.088-.412 3.058-.628 1.213-.27 2.307-.509 3.4-.65a85.647 85.647 0 0 0 78.076 114.308 39.9 39.9 0 0 1 -3.265 6.393 25.706 25.706 0 0 1 -2.747 3.637 5.909 5.909 0 0 0 -.54.567c-7.959 8.309-20.96 11.181-31.294 8.939a19.938 19.938 0 0 0 -3.981-22.3zm-305.674 124.334 41.666-69.492a43.09 43.09 0 0 0 2.892-38.346 56.691 56.691 0 0 1 -3.691-14.072 112.229 112.229 0 0 1 6.58-57.019 144.932 144.932 0 0 1 55.149-68.389c36.118-23.841 84.974-33.837 145.2-29.7a254.021 254.021 0 0 1 44.14 7.055 86.256 86.256 0 0 0 -17.205 22.191 29.948 29.948 0 0 0 -11.311.838c-.79.175-1.54.342-2.272.476-8.1-6.895-19.325-8.8-30.855-5.21a40.222 40.222 0 0 0 -10.823 5.242c-23.275-11.165-41-7.537-51.948-2.322a54.229 54.229 0 0 0 -16.85 12.608c-15.78-2.014-28.54.919-37.964 8.731-10.845 8.99-14 21.913-14.913 28.429a30.355 30.355 0 0 0 -15.608 16.18 27.911 27.911 0 0 0 -1.237 16.943c-6.613 8.211-9.848 18.06-9.848 30 0 28.287 24.639 51.3 54.924 51.3a58.653 58.653 0 0 0 18.492-3.013 35.7 35.7 0 0 0 11.639 17.871c8.071 6.787 18.589 10.317 30.285 10.317a62.969 62.969 0 0 0 10.8-.958c.693-.109 15.176-2.494 24.468-11.428a60.2 60.2 0 0 0 19.551 4.686 36.452 36.452 0 0 0 .769 7.756c2.3 10.785 9.68 18.292 20.791 21.138 20.432 5.232 35.89 15.741 38.466 26.149a12.824 12.824 0 0 0 12.679 9.471h12.674a12.739 12.739 0 0 0 12.848-10.837c2.855-22.593-8.942-42.357-15.829-51.718 10.15-6.734 21.973-18.642 27.305-39.028a37.3 37.3 0 0 0 3.453-4.674 48.909 48.909 0 0 0 5.882-13.316 84.817 84.817 0 0 0 33.689-11.622c1.727 52.281-14.3 108.568-31.434 137.094-17.223 28.668-22.48 64.059-15.625 105.191 5.574 33.446 17.981 62.451 24.879 76.764a1.284 1.284 0 0 1 -.075 1.3 1.269 1.269 0 0 1 -1.118.626h-178.882a1.379 1.379 0 0 1 -1.281-1.015c-6.529-20.708-22.735-45.159-30.735-56.493 33.261-13.4 57.035-22.889 57.422-23.044a6 6 0 1 0 -4.447-11.145c-.637.254-64.491 25.74-129.814 52.367-14.007 5.71-24.268 5.933-30.5.663-13.238-11.2-9-45.447-6.254-57.694a6 6 0 0 0 -3.85-6.975l-12.734-4.516 6.777-11.591a10.433 10.433 0 0 0 -4.916-14.861l-9.839-4.182 9-15.272a14.021 14.021 0 0 0 -3.9-18.588 5.925 5.925 0 0 0 -1.14-.644l-24.315-10.437a2.594 2.594 0 0 1 -1.456-1.6 2.63 2.63 0 0 1 .249-2.185z"/><path d="m356.914 73.542 11.56 4.8-9.012 8.126a6 6 0 0 0 8.036 8.912l16.059-14.48a6 6 0 0 0 -1.715-10l-20.323-8.447a6 6 0 1 0 -4.605 11.081z"/><path d="m426.988 95.385a6 6 0 0 0 8.036-8.912l-9.011-8.126 11.56-4.8a6 6 0 0 0 -4.6-11.081l-20.324 8.447a6 6 0 0 0 -1.715 10z"/><path d="m364.8 129.184a6 6 0 1 0 9.983 6.658c3.1-4.651 11.651-11.571 22.489-11.571 10.724 0 19.3 6.938 22.456 11.6a6 6 0 1 0 9.942-6.719c-5.5-8.13-17.977-16.882-32.4-16.882-14.562.001-27.04 8.768-32.47 16.914z"/><path d="m385.457 319.577a6 6 0 0 0 8.119-2.466c.867-1.623 1.784-3.24 2.726-4.807a6 6 0 1 0 -10.286-6.181c-1.046 1.74-2.063 3.535-3.025 5.335a6 6 0 0 0 2.466 8.119z"/><path d="m378.378 427.188a6.009 6.009 0 0 0 5.872-7.263c-6.827-31.746-6.313-60.139 1.526-84.39a6 6 0 1 0 -11.418-3.691c-8.5 26.284-9.116 56.768-1.839 90.6a6 6 0 0 0 5.859 4.744z"/></g></svg>